<svg xmlns="http://www.w3.org/2000/svg" viewBox="0 0 100 100">
  <!-- Samtaegeuk drum mark (DESIGN.md §4.2 O5): a buk drum head with three colors filling the disc. -->
  <circle cx="50" cy="50" r="49" fill="#fffbf3" stroke="#1a1714" stroke-width="1.5"/>
  <circle cx="50" cy="50" r="45.5" fill="none" stroke="#b38a32" stroke-width="2"/>
  <path fill="#c0392b" d="M50 50A25 25 0 0 1 50 7A43 43 0 0 1 87.24 71.5A25 25 0 0 0 50 50Z"/>
  <path fill="#1e4596" d="M50 50A25 25 0 0 1 87.24 71.5A43 43 0 0 1 12.76 71.5A25 25 0 0 0 50 50Z"/>
  <path fill="#d1a43f" d="M50 50A25 25 0 0 1 12.76 71.5A43 43 0 0 1 50 7A25 25 0 0 0 50 50Z"/>
  <circle cx="50" cy="50" r="43" fill="none" stroke="#1a1714" stroke-width="1"/>
</svg>
